<svg width="35" height="36" viewBox="0 0 35 36" fill="none" xmlns="http://www.w3.org/2000/svg">
<g clip-path="url(#clip0_30_13)">
<path d="M14.8613 23.329C13.9608 23.6332 13.2292 23.9162 12.4772 24.1279C10.3194 24.7323 8.79906 26.0417 7.82093 27.9834C7.44221 28.736 7.07984 29.5005 6.6371 30.2173C5.54182 31.9923 3.83078 32.8428 1.77099 33.0531C1.48082 33.0822 1.04898 32.8388 0.858257 32.5928C-0.144389 31.3046 -0.208417 29.8748 0.361021 28.3987C1.77099 24.7495 6.66298 21.4072 10.6831 21.3529C12.3165 21.3305 13.7319 21.7987 14.8626 23.3277L14.8613 23.329Z" fill="#603813"/>
<path d="M10.694 0.87561C10.551 1.74724 10.476 2.4747 10.3057 3.18231C9.71179 5.66229 10.367 7.83143 11.9991 9.75721C13.6856 11.7478 14.2605 13.9262 13.3709 16.4207C13.157 17.0199 12.8233 17.2646 12.1857 17.3109C10.1368 17.4603 8.69824 16.4604 7.72829 14.8931C5.65761 11.5481 5.25437 7.9518 6.57307 4.25631C7.20381 2.49057 8.4217 1.21024 10.694 0.87561Z" fill="#603813"/>
<path d="M30.9649 13.0043C30.5535 13.4699 30.202 13.9606 29.7579 14.3521C27.7417 16.1324 26.953 18.3359 27.1641 20.9482C27.239 21.8767 27.239 22.8343 27.0919 23.7496C26.8263 25.3963 25.7855 26.6118 24.4136 27.5403C24.1507 27.7188 23.6153 27.7215 23.3007 27.5905C21.719 26.9252 20.9003 25.629 20.8172 24.0379C20.5761 19.4589 22.4778 15.8295 26.3358 13.2173C27.7812 12.2385 29.4759 12.2279 30.9649 13.0043Z" fill="#603813"/>
<path d="M14.552 16.766C14.7141 15.979 14.8217 15.3891 14.958 14.8058C15.3844 12.9832 15.101 11.2638 13.751 9.92789C11.2267 7.42808 11.0318 4.51957 11.7661 1.33462C11.9419 0.574099 12.2906 0.432576 12.9731 0.525161C14.4689 0.726204 15.6432 1.47879 16.4906 2.62818C19.0748 6.13585 19.4467 9.91466 17.6839 13.8562C17.0968 15.1682 16.1118 16.184 14.5506 16.766H14.552Z" fill="#603813"/>
<path d="M25.2419 28.2743C25.8794 27.7386 26.3263 27.3842 26.7499 27.0032C28.3465 25.5668 28.9773 23.7945 28.5482 21.7259C27.833 18.2896 29.5944 15.8625 31.9771 13.6987C32.1542 13.5373 32.7699 13.6021 33.0151 13.7794C34.5327 14.8772 35.0395 16.4921 34.9986 18.2129C34.9046 22.161 33.165 25.3049 29.7565 27.5058C28.5127 28.3087 27.1218 28.6486 25.2432 28.2743H25.2419Z" fill="#603813"/>
<path d="M2.36224 34.1602C3.22185 33.9181 3.91662 33.7343 4.60185 33.5266C6.40689 32.979 7.69425 31.8468 8.23372 30.0943C9.2895 26.6634 12.01 25.2283 15.2618 24.4175C15.5152 24.354 16.0397 24.6503 16.1704 24.9082C16.8216 26.1872 16.6867 27.5178 16.1881 28.814C14.7496 32.5479 10.2894 35.5318 6.1862 35.5013C4.81709 35.4907 3.51883 35.2342 2.36224 34.1615V34.1602Z" fill="#603813"/>
</g>
<defs>
<clipPath id="clip0_30_13">
<rect width="35" height="35" fill="white" transform="translate(0 0.5)"/>
</clipPath>
</defs>
</svg>
