<svg width="44" height="44" viewBox="0 0 44 44" fill="none" xmlns="http://www.w3.org/2000/svg">
<path d="M27.1 9C29.0535 9.38113 30.8488 10.3365 32.2561 11.7439C33.6635 13.1512 34.6189 14.9465 35 16.9M27.1 1C31.1585 1.45087 34.9432 3.26835 37.8325 6.15402C40.7218 9.03968 42.544 12.822 43 16.88M41 32.84V38.84C41.0023 39.397 40.8882 39.9483 40.665 40.4587C40.4419 40.9691 40.1146 41.4272 39.7041 41.8037C39.2937 42.1803 38.8091 42.467 38.2815 42.6454C37.7538 42.8239 37.1947 42.8901 36.64 42.84C30.4857 42.1713 24.574 40.0683 19.38 36.7C14.5476 33.6293 10.4507 29.5323 7.37999 24.7C3.99994 19.4824 1.89647 13.542 1.23999 7.36C1.19001 6.80693 1.25574 6.24952 1.43299 5.72325C1.61024 5.19698 1.89513 4.71338 2.26952 4.30324C2.64391 3.89311 3.0996 3.56542 3.60757 3.34104C4.11554 3.11667 4.66467 3.00052 5.21999 3H11.22C12.1906 2.99045 13.1316 3.33416 13.8675 3.96707C14.6035 4.59997 15.0841 5.47889 15.22 6.44C15.4732 8.36013 15.9429 10.2455 16.62 12.06C16.8891 12.7758 16.9473 13.5538 16.7878 14.3018C16.6283 15.0497 16.2577 15.7362 15.72 16.28L13.18 18.82C16.0271 23.8271 20.1729 27.9729 25.18 30.82L27.72 28.28C28.2638 27.7423 28.9503 27.3717 29.6982 27.2122C30.4462 27.0527 31.2241 27.1109 31.94 27.38C33.7545 28.0571 35.6399 28.5268 37.56 28.78C38.5315 28.9171 39.4188 29.4064 40.0531 30.155C40.6873 30.9036 41.0243 31.8592 41 32.84Z" stroke="#1A1A1A" stroke-width="2" stroke-linecap="round" stroke-linejoin="round"/>
</svg>
