<svg xmlns="http://www.w3.org/2000/svg" width="100" height="100" viewBox="0 0 100 100" fill="none">
  <g opacity="0.1">
    <path d="M20 30c0 10-10 15-10 15s-10-5-10-15c0-8.3 4.5-15 10-15s10 6.7 10 15z" fill="#8b5a2b"/>
    <path d="M80 70c0 10-10 15-10 15s-10-5-10-15c0-8.3 4.5-15 10-15s10 6.7 10 15z" fill="#8b5a2b"/>
    <path d="M50 50c0 10-10 15-10 15s-10-5-10-15c0-8.3 4.5-15 10-15s10 6.7 10 15z" fill="#8b5a2b"/>
    <path d="M90 30c0 10-10 15-10 15s-10-5-10-15c0-8.3 4.5-15 10-15s10 6.7 10 15z" fill="#8b5a2b"/>
  </g>
</svg>
