<svg width="36" height="36" viewBox="0 0 36 36" fill="none" xmlns="http://www.w3.org/2000/svg">
<g clip-path="url(#clip0_30_111)">
<path d="M15.3613 23.3289C14.4608 23.6331 13.7292 23.9161 12.9772 24.1277C10.8194 24.7322 9.29906 26.0416 8.32093 27.9833C7.94221 28.7359 7.57984 29.5003 7.1371 30.2172C6.04182 31.9922 4.33078 32.8427 2.27099 33.053C1.98082 33.0821 1.54898 32.8387 1.35826 32.5927C0.355611 31.3044 0.291583 29.8747 0.861021 28.3986C2.27099 24.7494 7.16298 21.407 11.1831 21.3528C12.8165 21.3303 14.2319 21.7985 15.3626 23.3275L15.3613 23.3289Z" fill="#603813"/>
<path d="M11.194 0.875732C11.051 1.74736 10.976 2.47482 10.8057 3.18244C10.2118 5.66241 10.867 7.83156 12.4991 9.75734C14.1856 11.7479 14.7605 13.9263 13.8709 16.4209C13.657 17.02 13.3233 17.2647 12.6857 17.311C10.6368 17.4605 9.19824 16.4605 8.22829 14.8932C6.15761 11.5482 5.75437 7.95192 7.07307 4.25643C7.70381 2.49069 8.9217 1.21036 11.194 0.875732Z" fill="#603813"/>
<path d="M31.4649 13.0043C31.0535 13.4699 30.702 13.9606 30.2579 14.3521C28.2417 16.1324 27.453 18.3359 27.6641 20.9482C27.739 21.8767 27.739 22.8343 27.5919 23.7496C27.3263 25.3963 26.2855 26.6118 24.9136 27.5403C24.6507 27.7188 24.1153 27.7215 23.8007 27.5905C22.219 26.9252 21.4003 25.629 21.3172 24.0379C21.0761 19.4589 22.9778 15.8295 26.8358 13.2173C28.2812 12.2385 29.9759 12.2279 31.4649 13.0043Z" fill="#603813"/>
<path d="M15.052 16.7659C15.2141 15.9789 15.3217 15.389 15.458 14.8057C15.8844 12.9831 15.601 11.2636 14.251 9.92777C11.7267 7.42796 11.5318 4.51945 12.2661 1.3345C12.4419 0.573977 12.7906 0.432454 13.4731 0.525039C14.9689 0.726082 16.1432 1.47867 16.9906 2.62805C19.5748 6.13573 19.9467 9.91454 18.1839 13.856C17.5968 15.1681 16.6118 16.1839 15.0506 16.7659H15.052Z" fill="#603813"/>
<path d="M25.7419 28.2744C26.3794 27.7388 26.8263 27.3843 27.2499 27.0034C28.8465 25.567 29.4773 23.7946 29.0482 21.726C28.333 18.2897 30.0944 15.8627 32.4771 13.6988C32.6542 13.5374 33.2699 13.6023 33.5151 13.7795C35.0327 14.8773 35.5395 16.4922 35.4986 18.213C35.4046 22.1611 33.665 25.3051 30.2565 27.506C29.0127 28.3088 27.6218 28.6487 25.7432 28.2744H25.7419Z" fill="#603813"/>
<path d="M2.86224 34.16C3.72185 33.918 4.41662 33.7341 5.10185 33.5265C6.90689 32.9789 8.19425 31.8467 8.73372 30.0942C9.7895 26.6633 12.51 25.2282 15.7618 24.4174C16.0152 24.3539 16.5397 24.6502 16.6704 24.9081C17.3216 26.1871 17.1867 27.5177 16.6881 28.8139C15.2496 32.5477 10.7894 35.5316 6.6862 35.5012C5.31709 35.4906 4.01883 35.234 2.86224 34.1614V34.16Z" fill="#603813"/>
</g>
<defs>
<clipPath id="clip0_30_111">
<rect width="35" height="35" fill="white" transform="translate(0.5 0.5)"/>
</clipPath>
</defs>
</svg>
