<svg width="17" height="16" viewBox="0 0 17 16" fill="none" xmlns="http://www.w3.org/2000/svg">
<path d="M14.8602 2.9021C13.9597 3.20631 13.2281 3.48936 12.4761 3.70098C10.3183 4.30543 8.79796 5.61486 7.81983 7.55651C7.44111 8.3091 7.07875 9.07359 6.636 9.79047C5.54072 11.5655 3.82968 12.4159 1.76989 12.6262C1.47973 12.6553 1.04788 12.412 0.857159 12.1659C-0.145488 10.8777 -0.209516 9.4479 0.359922 7.97182C1.76989 4.32263 6.66188 0.980288 10.682 0.926059C12.3154 0.903574 13.7308 1.37179 14.8615 2.90078L14.8602 2.9021Z" fill="#603813"/>
<path d="M2.36115 13.7333C3.22075 13.4912 3.91552 13.3074 4.60075 13.0997C6.40579 12.5522 7.69315 11.42 8.23262 9.66745C9.2884 6.23649 12.0089 4.80142 15.2607 3.99063C15.5141 3.92714 16.0386 4.22342 16.1693 4.48133C16.8205 5.76034 16.6856 7.09093 16.187 8.38713C14.7485 12.121 10.2883 15.1049 6.1851 15.0745C4.81599 15.0639 3.51773 14.8073 2.36115 13.7346V13.7333Z" fill="#603813"/>
</svg>
